<svg xmlns="http://www.w3.org/2000/svg" xmlns:xlink="http://www.w3.org/1999/xlink" version="1.1" id="Layer_1" x="0px" y="0px" viewBox="0 0 48 48" height="250px" style="enable-background:new 0 0 48 48;" xml:space="preserve">
<g id="surface1">
	<path style="fill:#8D6E63;" d="M42.5,45c-1.4,0-2.5-1.1-2.5-2.5V39h5v3.5C45,43.9,43.9,45,42.5,45z"></path>
	<path style="fill:#8D6E63;" d="M41,43c-2.4,0-3-1.4-3-4c0-0.8,0-2.4,0-3c0-2.9-3-3-3-3v1c0,0,2,0.1,2,2c0,0.6,0,2.2,0,3   c0,3.2,0.1,6,5.5,6L41,43z"></path>
	<path style="fill:#FFB74D;" d="M28,45v-7.4l2.2,0.3c2.6,0.5,5-1.3,5.3-3.9l0.5-5l3-1.7c0.9-0.4,1.3-1.5,0.8-2.3L36,19   c-0.6-6.8-5-13-15-13C13,6,6,13.3,6,21c0,3.3,1.5,6.5,3.3,9c1.6,2.2,2.7,5.3,2.7,8v7H28z"></path>
	<path style="fill:#FF9800;" d="M28,45v-7.4L22,36v9H28z"></path>
	<path style="fill:#784719;" d="M33,22.5c0,0.8-0.7,1.5-1.5,1.5S30,23.3,30,22.5s0.7-1.5,1.5-1.5S33,21.7,33,22.5z"></path>
	<path style="fill:#424242;" d="M21,6C12.9,6,6,12.9,6,21c0,10,6,10.5,6,17l2.4-0.8c1.9-0.6,3.1-2.6,3.9-4.5l2.5-6.2L26,24v-5   c0,0,6-4.1,6-10C29.3,7,24.9,6,21,6z"></path>
	<path style="fill:#FFB74D;" d="M24,24.5c0,1.9-1.6,3.5-3.5,3.5S17,26.4,17,24.5s1.6-3.5,3.5-3.5S24,22.6,24,24.5z"></path>
	<path style="fill:#8D6E63;" d="M43,12l-0.4-1l-9-0.4L20.9,9l-10.2,6.3L6.4,27.4L3,35l1,1c0,0,11.6-9.5,18.1-13.6   C28.7,18.3,43,12,43,12z"></path>
	<path style="fill:#6D4C41;" d="M11.6,5.4c-7.5,4.7-9.8,14.5-5.2,22l27.2-16.9C29,3.1,19.1,0.7,11.6,5.4z"></path>
	<path style="fill:#8D6E63;" d="M9.7,13.7l7.5,12.1c1.8-1.3,3.5-2.5,5-3.4c1.5-0.9,3.3-1.9,5.2-3L19.9,7.3c-1.7-2.8-5.5-3.7-8.3-1.9   C8.8,7.1,7.9,10.9,9.7,13.7z"></path>
	<path style="fill:#8D6E63;" d="M11,36c0,0,10.4,1.8,20,9H10L11,36z"></path>
	<path style="fill:#8D6E63;" d="M11.1,6.5C10.4,5.2,9.6,5,9,5V3c1.1,0,2.7,0.4,3.9,2.5L11.1,6.5z"></path>
</g>
</svg>